<?xml version="1.0" encoding="UTF-8"?>
<svg id="Layer_1" data-name="Layer 1" xmlns="http://www.w3.org/2000/svg" viewBox="0 0 3166.46 540.97">
  <defs>
    <style>
      .cls-1 {
        fill: #fff;
      }
    </style>
  </defs>
  <path class="cls-1" d="M3166.46,291.32c-.26,1.23-.71,2.46-.74,3.69-.31,12.42-3.33,24.32-6.99,36.07-4.38,14.08-10.24,27.52-18.22,39.98-16.09,25.13-38.54,42.27-66.42,52.58-10.37,3.84-21.04,6.6-31.91,8.47-14.49,2.49-29.03,4.61-43.55,6.89-4.1,.64-8.19,1.32-12.19,1.96-1.34,1.67-.86,3.5-.87,5.2-.04,11.66-.02,23.31-.03,34.97,0,1.74-.09,3.48-.14,5.47-1.06,.22-1.93,.48-2.82,.56-1.11,.09-2.24,.03-3.36,.03-24.15,0-48.3,0-72.45,0-1.89,0-3.77-.09-5.47-.14-1.13-1.8-.74-3.43-.75-4.99-.03-12.3-.01-24.59-.03-36.89,0-1.56-.14-3.12-.23-4.89-2.59-.37-4.92-.77-7.27-1.04-9.53-1.1-19.06-2.13-28.59-3.24-19.11-2.22-37.87-5.95-55.82-13.11-40.03-15.95-66.59-44.66-80.72-85.09-3.91-11.19-6.13-22.77-7.84-34.49-2.06-14.12-2.62-28.31-1.78-42.52,1.64-27.53,9.07-53.41,23.16-77.23,12.78-21.62,30.61-37.86,53.17-48.98,19.64-9.69,40.28-16.21,61.94-19.37,7.58-1.11,15.26-1.55,22.9-2.18,6.7-.56,13.3-1.63,20-2.94,.75-4.23,.28-8.37,.36-12.49,.09-4.31,.02-8.62,.02-12.93v-12.63c1.07-.28,1.93-.61,2.82-.72,.95-.12,1.92-.04,2.88-.04,24.63,0,49.26,0,73.89,0,1.73,0,3.47,.09,5.51,.15,.12,1.69,.3,3.07,.31,4.45,.03,9.1,0,18.2,.02,27.31,0,1.57,.07,3.14,.11,4.94,5.46,1.05,10.62,2.06,15.79,3.03,17.74,3.32,35.55,6.29,53.12,10.49,12.15,2.91,24.07,6.44,35.34,11.91,25.68,12.44,44.6,31.68,57.53,56.95,7.99,15.61,13.05,32.2,16.4,49.36,1.16,5.96,2.09,11.94,2.17,18.04,.02,1.23,.49,2.46,.75,3.69v29.71Zm-266.93,74.58c.04-2.29,.11-4.18,.11-6.07,0-57.13,0-114.27,0-171.4,0-1.12,.07-2.24-.03-3.35-.07-.88-.35-1.74-.54-2.64-2.83,.24-5.38,.38-7.91,.68-7.61,.9-15.28,1.51-22.8,2.89-11.21,2.07-21.87,5.9-31.67,11.87-12.63,7.71-21.34,18.57-26.04,32.6-.86,2.57-1.6,5.18-2.27,7.81-2.58,10.05-4.36,20.27-5.9,30.52-1.91,12.78-1.56,25.51,2.17,37.93,8.75,29.14,27.2,48.59,57.24,56.12,11.39,2.85,23.02,3.6,34.72,3.4,.78-.01,1.56-.18,2.9-.34Zm86.82,1.61c5.03-.52,9.79-1.02,14.56-1.49,10.37-1.04,20.55-2.9,30.33-6.66,8.39-3.22,16.45-7.02,23.73-12.35,11.51-8.41,19.26-19.47,23.11-33.17,2.86-10.17,4.46-20.58,4.91-31.15,.37-8.79,.14-17.56-1.04-26.29-1.44-10.68-4.32-20.93-9.16-30.59-7.5-14.98-18.79-26.11-34.18-32.84-4.81-2.1-9.86-3.76-14.93-5.11-11.47-3.06-23.23-4.31-35.06-4.98-.75-.04-1.51,.08-2.54,.14-.09,1.34-.21,2.42-.22,3.5-.65,40.37-.32,175.4,.5,180.97Z"/>
  <path class="cls-1" d="M149.07,540.69c-10.5-1.06-20.99-2.22-31.5-3.07-26.61-2.15-52.44-7.76-77.39-17.25-10.06-3.83-19.45-8.85-27.84-15.71-6.35-5.19-10.55-11.48-11.49-19.73-2.01-5.03,.09-9.74,1.3-14.45,1.14-4.4,3.63-8.15,6.99-11.26,3.36-3.12,7.4-4.91,11.84-5.97,10.57-2.5,21.12-5.09,31.67-7.65,.45-.11,.89-.31,1.3-.46,.24-1.14-.62-1.33-1.29-1.71-3.36-1.85-6.8-3.56-10.04-5.59-14.69-9.21-25.31-21.93-31.71-37.98-6.09-15.29-9.25-31.21-8.63-47.72,.69-18.61,5.7-35.86,16.85-51.06,8.3-11.31,18.57-20.17,31.74-25.44,5.52-2.21,11.24-3.62,17.11-4.47,4.26-.61,8.52-1.3,12.72-1.95,.47-1.59-.79-2.08-1.5-2.79-8.25-8.29-15.8-17.15-22.25-26.93-10.83-16.4-17.61-34.3-20.09-53.8-.44-3.48-.61-7-.85-10.5-.04-.59,.22-1.2,.33-1.72,3.53-.74,12.07-.86,17.55-.25,.2,.61,.6,1.32,.64,2.05,1.4,23.98,10.83,44.79,25.38,63.48,13.59,17.46,30.45,30.9,50.87,39.66,11.1,4.76,22.67,7.71,34.8,8.21,.48,.02,.96,.04,1.43,.12,.3,.05,.59,.22,.88,.34,.85,3.22,1.03,11.99,.33,18.25-.5,.1-1.11,.4-1.65,.32-9.64-1.4-19.33-2.54-28.75-5.19-10.54-2.96-20.38-7.5-29.64-13.28-4.27-2.67-8.77-3.7-13.73-2.94-.79,.12-1.59,.19-2.38,.31-6.17,.98-12.24,2.34-17.99,4.86-4.29,1.87-8.15,4.4-11.51,7.66-2.55,2.48-4.6,5.3-5.75,8.71-1.9,5.66-.69,10.7,3.06,15.21,2.08,2.51,4.78,4.21,7.68,5.62,6.89,3.37,14.24,4.63,21.84,4.7,7.52,.07,15.03,.1,22.55,.12,29.11,.08,58.22,.07,87.32,.26,16.95,.11,33.9,.26,50.84,.88,23.59,.86,44.62,8.92,63.1,23.59,12.73,10.1,22.98,22.21,29.44,37.21,10.61,24.63,10.34,49.29-.2,73.92-8.46,19.79-22,34.98-40.76,45.59-11.32,6.41-23.37,11.06-35.71,15.02-14.5,4.64-29.31,7.87-44.47,9.38-5.73,.57-11.48,.85-17.23,1.2-12.13,.75-24.26,1.46-36.39,2.23-.9,.06-4.79,.51-18.81-.05Zm-66.77-88.64c-9.98,12.16-11.2,28.51-4.55,40.98,4.53,8.49,11.27,14.61,19.92,18.64,3.18,1.48,6.48,2.72,9.79,3.87,11.82,4.1,23.98,6.65,36.43,7.89,10.35,1.04,20.71,1.61,31.11,1.14,10.86-.48,21.71-.93,32.56-1.54,7.66-.43,15.3-1.14,22.83-2.66,14.75-2.99,29.13-7.22,42.9-13.33,7.06-3.13,13.48-7.24,19.2-12.47,5.37-4.92,7.92-11.08,8.44-18.19,.21-2.92-.37-5.67-1.87-8.27-4.53-7.86-11.21-11.94-20.37-12-26.21-.19-52.42-.5-78.63-.67-26.05-.17-52.11-.24-78.16-.36-9.27-.04-18.53-.23-27.73-1.65-3.93-.61-7.9-.93-11.87-1.38Z"/>
  <path class="cls-1" d="M1971.53,0V141.95c-1.16,.24-2.05,.53-2.96,.58-1.59,.09-3.2,.03-4.8,.03-59.02,0-118.04,0-177.05,.01-2.04,0-4.12-.27-6.31,.42-.12,.87-.3,1.63-.32,2.39-.05,1.92-.03,3.83-.03,5.75,0,109.87,0,219.74-.02,329.61,0,2.2,.44,4.46-.48,6.57-4.09,.6-81.44,.59-85.44-.02-.13-.56-.38-1.17-.38-1.78,0-137.33,.02-274.67,.06-412,0-.44,.29-.89,.56-1.66,14.64,0,29.33,0,44.03,0h44.14c14.55,0,29.11,.01,43.66,0,14.71-.01,29.43-.06,44.14-.08,14.67-.01,29.34,0,43.71,0,.43-.81,.7-1.08,.7-1.35,.07-23.47,.11-46.94,.16-70.41h56.63Z"/>
  <path class="cls-1" d="M633.01,143.03c-.11,.83-.27,1.59-.29,2.35-.52,15.31-.19,82.81,.46,87.45,.8,.13,1.69,.35,2.59,.39,1.6,.07,3.2,.03,4.8,.03,64.3,0,128.6,0,192.91,.01,2.05,0,4.14-.32,6.36,.48,.13,1.08,.34,2.15,.37,3.22,.57,25.42,.27,62.92-.56,67.18-.68,.11-1.44,.32-2.21,.35-1.6,.06-3.2,.03-4.8,.03-64.46,0-128.92,0-193.38,0-2.05,0-4.12-.2-5.88,.22-.34,.37-.47,.48-.55,.61-.08,.13-.14,.29-.14,.44-.05,35.93-.09,71.86-.12,107.79,0,.62,.12,1.24,.22,2.15,.92,.18,1.8,.45,2.69,.5,1.6,.08,3.2,.04,4.8,.04,71.98,0,143.96,0,215.94,.01,2.05,0,4.14-.31,5.91,.34,.3,.34,.42,.44,.49,.57,.07,.14,.14,.3,.14,.45,.05,1.43,.13,2.87,.13,4.3,0,21.24-.03,42.48-.05,63.72,0,.31-.11,.63-.21,.93-.05,.14-.19,.24-.54,.66-.47,.06-1.23,.23-2,.26-13.42,.5-309.1,.15-313.63-.4-.15-.78-.41-1.66-.46-2.55-.08-1.43-.03-2.87-.03-4.31,0-133.67,0-267.35,.02-401.02,0-2.19-.42-4.45,.5-6.74,.62-.13,1.22-.37,1.83-.37,102.03-.02,204.06-.02,305.86-.02,1.54,1.64,1.02,3.32,1.03,4.84,.04,13.1,.02,26.19,.02,39.29,0,7.19,.01,14.37-.01,21.56,0,1.39-.16,2.79-.27,4.39-1,.14-1.76,.31-2.53,.33-1.6,.05-3.2,.02-4.8,.02-69.42,0-138.84,0-208.26,.01-2.04,0-4.12-.29-6.33,.45Z"/>
  <path class="cls-1" d="M1244.18,72.1c.31,1.09,.54,1.54,.54,1.98,.02,137.17,.01,274.34,0,411.51,0,.44-.25,.88-.42,1.48-1.64,.75-3.42,.46-5.13,.46-18.39,.02-36.78,.01-55.18,.01-6.56,0-13.11,.01-19.67,0-1.57,0-3.14-.1-4.91-.17-.2-1.14-.46-2.04-.5-2.95-.08-1.59-.03-3.19-.03-4.79,0-109.7,0-219.41,0-329.11,0-2.2,.19-4.42-.34-6.85-1.09-.11-2.01-.25-2.92-.28-19.81-.57-113.53-.24-118.22,.44-.16,.81-.44,1.7-.49,2.6-.08,1.59-.03,3.19-.03,4.79,0,47.75,.05,95.49-.02,143.24-.03,21.24-.12,42.47-.5,63.71-.26,14.52-.85,29.04-2.26,43.52-.73,7.46-1.34,14.94-2.21,22.39-.69,5.87-2.11,11.62-4.02,17.22-5.01,14.64-13.96,26.47-26.25,35.78-8.92,6.76-19.09,10.17-30.27,10.64-19.82,.83-39.64,.92-59.46,.34-5.27-.16-10.55-.1-15.83-.16-1.57-.02-3.14-.11-4.4-.16-.4-.38-.54-.47-.63-.6-.08-.12-.15-.28-.15-.43-.05-1.91-.14-3.83-.13-5.74,.02-19.64,.06-39.28,.11-58.92,0-.28,.22-.56,.48-1.18,.9-.08,1.97-.26,3.04-.26,7.04,0,14.07,.05,21.11,.06,5.77,0,11.49-.58,17.13-1.85,8.94-2.01,14.64-7.33,17.03-16.24,1.67-6.22,2.28-12.58,2.39-18.96,.2-11.49,.14-22.99,.12-34.49-.03-14.05-.18-28.1-.19-42.15-.03-45.19-.02-90.38,0-135.57,.01-31.3,.07-62.6,.11-93.89,0-1.58,.05-3.16,.08-4.9,1.19-.2,2.1-.42,3.02-.49,1.11-.08,2.24-.02,3.36-.02,93.24,0,186.48,0,279.72,0h5.94Z"/>
  <path class="cls-1" d="M2741.52,487.62c-1.22,.1-2.31,.26-3.39,.26-26.87-.01-53.73-.05-80.6-.08-.8,0-1.6-.03-2.4-.06-4.27-.14-7.29-2.2-8.87-6.12-2.62-6.51-5.15-13.06-7.65-19.62-8.02-21.02-16-42.06-24-63.09-.62-1.63-1.28-3.24-1.98-4.99-1.4-.1-2.65-.27-3.9-.27-41.9-.01-83.8-.02-125.7,0-9.11,0-18.23,.06-27.34,.12-1.9,.01-3.8-.04-5.59,.96-2.52,1.4-4.07,3.46-5.02,6.13-3.27,9.17-6.63,18.3-9.93,27.46-6.06,16.81-12.08,33.64-18.19,50.43-.7,1.93-1.67,3.8-2.79,5.51-1.58,2.4-3.8,3.59-6.87,3.53-6.87-.13-13.75,.08-20.63,.09-19.67,.02-39.34,0-59.01,0-1.43,0-2.85,0-4.23,0-.63-1.83,.28-3.08,.76-4.35,6.73-17.75,13.41-35.53,20.32-53.22,40.26-103,80.59-205.97,120.84-308.97,4.88-12.48,9.37-25.12,14.07-37.67,.73-1.94,1.46-3.89,2.37-5.75,1.81-3.7,4.77-5.95,8.94-6.37,1.74-.18,3.51-.26,5.26-.25,15.83,.13,31.65,.35,47.48,.43,7.67,.04,15.35-.14,23.02-.25,8.32-.12,9.8,.84,12.88,8.54,11.42,28.6,22.84,57.21,34.27,85.81,36.44,91.13,72.87,182.26,109.33,273.38,5.04,12.59,10.22,25.13,15.26,37.73,1.35,3.38,2.88,6.74,3.31,10.65Zm-211.68-313.76c-.35-.02-.7-.03-1.05-.05-.58,1.43-1.2,2.84-1.72,4.28-11.15,30.57-22.29,61.14-33.42,91.72-5.79,15.89-11.57,31.78-17.33,47.67-.47,1.3-1.41,2.57-.63,4.07,4.6,.5,104.61,.43,108.36-.09,0-.45,.13-.96-.02-1.37-18.05-48.75-36.12-97.49-54.19-146.24Z"/>
  <path class="cls-1" d="M1293.1,487.67V72.86c1.12-.21,2.16-.56,3.2-.58,5.44-.06,10.88-.03,16.32-.03,20.31,0,40.63,0,60.94,.02,1.73,0,3.51-.33,5.38,.56,.69,1.57,.37,3.34,.38,5.05,.03,14.37,.02,28.75,.02,43.12,0,36.73,0,73.47,.01,110.2,0,1.88-.23,3.8,.42,5.95,1.44,.1,2.84,.28,4.23,.28,6.72,.03,13.44,.01,20.15,.01,29.91,0,59.82-.01,89.74,.01,6.88,0,13.76-.02,20.63,.27,17.85,.75,35.26,3.79,51.92,10.45,20.31,8.12,37.61,20.31,50.93,37.82,10.42,13.7,17.07,29.16,20.96,45.83,2.92,12.49,4.51,25.16,3.89,38-1.44,29.5-11.33,55.85-30.41,78.49-14.38,17.07-32.99,27.5-54.56,32.75-12.76,3.11-25.72,4.88-38.82,5.93-14.06,1.13-28.14,.79-42.2,.85-39.03,.16-78.06,.14-117.09,.15-20.31,0-40.63-.06-60.94-.11-1.56,0-3.12-.13-5.09-.21Zm87.21-72.03c1.59,1.21,3.53,1.01,5.42,.99,12.3-.16,24.61-.32,36.91-.5,17.74-.26,35.48-.45,53.21-.85,10.06-.23,20.14-.51,30.17-1.3,11.31-.89,21.44-5.12,29.77-12.91,10.84-10.13,17.08-22.57,17.67-37.54,.38-9.76-1.54-19.06-6.44-27.6-4.18-7.28-9.94-12.92-17.86-15.97-11.2-4.3-22.69-7.62-34.56-9.52-8.39-1.34-16.85-1.72-25.32-1.8-14.86-.14-29.73-.17-44.59-.16-12.31,0-24.61,.13-36.92,.22-2.53,.02-5.06,.12-7.68,1.03-.1,1.55-.25,2.96-.26,4.37-.39,41.07-.13,97.71,.48,101.56Z"/>
  <path class="cls-1" d="M2012.8,72.11c1.16-.21,1.76-.38,2.37-.41,1.12-.06,2.24-.04,3.36-.04,45.09-.05,90.19-.15,135.28-.13,18.55,0,37.1,.15,55.64,.43,13.13,.2,26.18,1.47,38.9,4.93,16.69,4.54,31.05,13.34,44.01,24.51,20.74,17.88,32.6,40.55,36.32,67.62,1.89,13.79,3.23,27.59,2.66,41.52-1.21,29.57-10.93,55.92-30.57,78.25-16.32,18.56-36.9,30.23-60.86,36.08-12.95,3.16-26.11,4.65-39.42,4.8-19.98,.22-39.97,.31-59.96,.36-13.43,.03-26.86-.11-40.29-.18-.78,0-1.56,0-2.6,0-.21,1.08-.48,1.96-.53,2.85-.09,1.43-.03,2.87-.03,4.31,0,48.06,0,96.12,0,144.17,0,1.89-.07,3.77-.1,5.38-1.55,1.38-3.06,.97-4.45,.97-10.55,.04-21.11,.02-31.66,.02-14.07,0-28.14,0-42.22,0-1.73,0-3.46-.1-5.47-.17-.15-1.16-.33-2.06-.36-2.96-.06-1.43-.02-2.87-.02-4.31,0-133.64,0-267.27,0-400.91v-7.09Zm85.07,182.85c2.09,.11,3.99,.27,5.88,.31,14.07,.29,28.14,.67,42.21,.8,16.31,.15,32.62,.02,48.91-1.15,9.88-.71,18.79-3.53,26.52-9.78,9.71-7.85,16.55-17.68,20.34-29.57,1.51-4.74,2.43-9.63,2.06-14.62-.41-5.58-1.31-11.1-2.89-16.48-5.15-17.54-16.31-29.27-33.79-34.96-9.35-3.04-18.97-4.58-28.76-4.64-25.91-.18-51.82-.14-77.73-.17-.91,0-1.82,.19-2.96,.31-.09,1.18-.2,2.11-.22,3.03-.5,23.09-.23,101.34,.43,106.92Z"/>
  <path class="cls-1" d="M185.35,23.19c5.21-.4,10.1,.51,14.97,1.24,23.83,3.6,44.76,13.76,63.48,28.64,5.12,4.07,9.9,8.57,14.84,12.87,.58,.5,1.18,.97,1.71,1.4,1.36-.63,.98-1.71,1.06-2.57,.74-7.95,1.46-15.9,3.8-23.59,3.71-12.17,10.26-22.3,21.21-29.19,9.74-6.14,20.42-8.87,31.94-8.43,5.83,.23,11.41,1.39,16.71,3.81,12.78,5.82,19.69,15.91,21.19,29.68,.82,7.51,.1,14.98-1.66,22.35-.92,3.87-2.78,7.16-5.7,9.77-6.29,5.63-13.82,8.5-22.12,9.39-4.41,.47-8.62-.54-12.47-2.7-2.64-1.48-5.09-3.28-7.67-4.88-3.52-2.19-7.02-4.43-10.63-6.46-3.59-2.02-7.39-1.99-11.05-.18-1.84,.91-3.61,2.07-5.2,3.37-2.58,2.12-3.96,4.95-4.22,8.31-.21,2.73,.06,5.39,.86,8.04,1.5,4.93,3.87,9.45,6.27,13.96,4.38,8.19,8.07,16.66,10.71,25.57,2.69,9.08,4.2,18.35,4.37,27.82,.02,1.09-.08,2.18-.13,3.2-3.52,.84-12.2,.96-17.55,.25-.39-2.7-.8-5.51-1.19-8.31-2.49-17.56-9.05-33.53-19.16-48.04-10.81-15.5-24.08-28.55-39.85-39-13.66-9.06-28.65-14.71-44.87-17.09-1.58-.23-3.19-.26-4.78-.45-1.57-.18-3.13-.43-4.61-.64-.92-3.49-1.06-12.35-.28-18.14Z"/>
  <path class="cls-1" d="M185.56,173.42c.46-.16,.9-.44,1.35-.44,31.02-.04,62.05-.05,93.07-.04,.61,0,1.22,.26,2.09,.45,.42,3.37,.29,6.68-.13,9.98-.99,7.81-3.1,15.34-6.42,22.47-11.65,25.08-29.72,44.02-54.54,56.38-8.66,4.31-17.89,6.84-27.53,7.77-2.51,.24-5.06,.04-7.88,.04-.17-.99-.39-1.88-.46-2.78-.08-1.11-.03-2.23-.03-3.35,0-28.26,0-56.52,.02-84.79,0-1.88-.36-3.82,.46-5.7Z"/>
  <path class="cls-1" d="M168.07,173.44c.1,1.12,.27,2.22,.29,3.31,.5,27.05,.26,87.97-.4,93.07-.99,.12-2.05,.4-3.11,.35-7.71-.34-15.17-1.91-22.45-4.5-28.29-10.07-54.15-34.94-65.02-62.65-3.34-8.53-5.43-17.34-5.35-26.56,0-.94,.13-1.89,.2-2.79,1.67-1.25,3.49-.76,5.19-.76,13.26-.04,26.52-.02,39.79-.02,15.18,0,30.36,0,45.54,.01,1.73,0,3.51-.28,5.32,.55Z"/>
  <path class="cls-1" d="M168.41,154.91c-.94,.16-1.54,.35-2.15,.35-31.01,.01-62.01,.01-93.26,.01-.26-1.26-.63-2.29-.67-3.34-.29-7.11,1.04-13.98,3.27-20.69,5.29-15.91,14.32-29.51,25.85-41.53,9.71-10.14,20.81-18.39,33.73-24.05,8.71-3.81,17.78-6.21,27.33-6.53,1.74-.06,3.47,0,5.47,0,.23,1.13,.48,2,.57,2.89,.09,.95,.04,1.91,.04,2.87,0,28.26,0,56.51,0,84.77,0,1.73-.1,3.45-.15,5.26Z"/>
  <path class="cls-1" d="M185.65,59.3c4.55-.57,8.99-.15,13.37,.53,9.57,1.47,18.62,4.61,27.03,9.35,24.62,13.88,42.04,33.99,51.86,60.52,2.56,6.91,4.16,14.08,4.47,21.48,.05,1.11,0,2.22,0,3.16-1.42,1.29-2.93,.87-4.31,.87-12.47,.04-24.95,.02-37.42,.02-16.47,0-32.94,0-49.41,0h-5.47c-.22-1.1-.49-1.98-.56-2.87-.09-1.11-.03-2.23-.03-3.35,0-27.94,0-55.88,.01-83.82,0-1.87-.25-3.79,.45-5.88Z"/>
  <path class="cls-1" d="M167.95,23.22c.76,3.58,.87,12.75,.24,17.75-1.27,1.24-2.97,.92-4.51,1.05-16.2,1.3-31.25,6.15-45.25,14.35-13.53,7.92-24.91,18.33-35.02,30.2-8.33,9.78-15.29,20.43-20.33,32.28-4.66,10.96-7.46,22.36-8.31,34.24-.06,.79-.16,1.58-.27,2.6-.71,.2-1.43,.58-2.16,.59-4.63,.05-9.27,.03-13.9,0-.45,0-.9-.21-1.62-.4-.13-1.2-.34-2.42-.38-3.65-.33-12.14,2.16-23.78,6.4-35.08,7.92-21.16,20.57-39.2,36.74-54.83,14.51-14.03,31.06-24.98,50.06-32.07,10.39-3.88,21.14-6.15,32.19-6.99,2.05-.16,4.12-.02,6.14-.02Z"/>
  <path class="cls-1" d="M299.93,173.1c4.68-.68,12.88-.65,16.72,.02,.76,3.06,.73,6.23,.62,9.41-.41,11.62-3.22,22.69-7.66,33.39-8.02,19.3-20.01,35.89-35.02,50.33-14.07,13.54-30.02,24.24-48.32,31.27-11.72,4.5-23.81,7.23-36.4,7.51-1.39,.03-2.78-.11-4.08-.17-.79-4.3-.79-13.81-.02-18,2.91-.32,5.89-.63,8.87-.96,19.04-2.14,36.07-9.34,51.39-20.63,16.26-11.99,29.78-26.51,39.73-44.18,7.78-13.82,12.22-28.7,13.77-44.46,.11-1.1,.25-2.2,.41-3.52Z"/>
</svg>