<svg width="73" height="69" viewBox="0 0 73 69" fill="none" xmlns="http://www.w3.org/2000/svg">
<path d="M64.792 46.4792C64.792 46.4792 56.7087 55.2496 56.7087 60.625C56.7087 62.7688 57.5603 64.8249 59.0762 66.3408C60.5921 67.8567 62.6482 68.7083 64.792 68.7083C66.9358 68.7083 68.9919 67.8567 70.5078 66.3408C72.0237 64.8249 72.8753 62.7688 72.8753 60.625C72.8753 55.2496 64.792 46.4792 64.792 46.4792ZM9.05742 40.4167L28.417 21.0571L47.7766 40.4167M54.9303 36.1325L18.7978 0L13.0991 5.69875L22.7183 15.3179L1.90367 36.1325C-0.480911 38.3958 -0.480911 42.3162 1.90367 44.7008L24.1328 66.93C25.3049 68.1021 26.8812 68.7083 28.417 68.7083C29.9528 68.7083 31.5291 68.1021 32.7012 66.93L54.9303 44.7008C57.3149 42.3162 57.3149 38.3958 54.9303 36.1325Z" fill="white"/>
</svg>
