<svg width="65" height="65" viewBox="0 0 65 65" fill="none" xmlns="http://www.w3.org/2000/svg">
<path d="M22.8945 55.7812C17.839 53.4479 13.7197 49.9236 10.5366 45.2083C7.35356 40.4931 5.76106 35.1701 5.75911 29.2396C5.75911 27.9757 5.83203 26.7361 5.97786 25.5208C6.1237 24.3056 6.34245 23.1146 6.63411 21.9479L3.27995 23.9167L0.363281 18.8854L14.2904 10.8646L22.3112 24.7188L17.207 27.6354L13.2695 20.7812C12.7348 22.0937 12.3343 23.4549 12.0679 24.8646C11.8015 26.2743 11.6673 27.7326 11.6654 29.2396C11.6654 33.9549 12.9536 38.2453 15.5299 42.1108C18.1063 45.9764 21.5334 48.8318 25.8112 50.6771L22.8945 55.7812ZM45.207 20.4167V14.5833H53.1549C50.9188 11.8125 48.2209 9.66194 45.0612 8.13167C41.9015 6.60139 38.5473 5.83528 34.9987 5.83333C32.3251 5.83333 29.7973 6.24653 27.4154 7.07292C25.0334 7.8993 22.8459 9.06597 20.8529 10.5729L17.9362 5.46875C20.3668 3.76736 23.0044 2.43056 25.8491 1.45833C28.6938 0.486111 31.7194 0 34.9258 0C38.7661 0 42.4488 0.7175 45.9741 2.1525C49.4994 3.5875 52.6465 5.66514 55.4154 8.38542V4.375H61.2487V20.4167H45.207ZM43.3112 64.1667L29.3841 56.1458L37.4049 42.2917L42.4362 45.2083L38.2799 52.3542C44.0161 51.5278 48.7926 48.9387 52.6095 44.5871C56.4265 40.2354 58.334 35.1206 58.332 29.2425C58.332 28.7078 58.3194 28.1974 58.2941 27.7113C58.2688 27.2251 58.2086 26.739 58.1133 26.2529H64.0195C64.0681 26.739 64.1051 27.2135 64.1304 27.6762C64.1556 28.139 64.1673 28.6358 64.1654 29.1667C64.1654 35.7292 62.2083 41.5994 58.2941 46.7775C54.3799 51.9556 49.2884 55.4429 43.0195 57.2396L46.2279 59.1354L43.3112 64.1667Z" fill="white"/>
</svg>
