<svg width="20" height="22" viewBox="0 0 20 22" fill="none" xmlns="http://www.w3.org/2000/svg">
<path d="M9.44051 9.52428L5.87468 13.0874L2.30884 9.52428C1.60399 8.8191 1.12405 7.92076 0.929711 6.94283C0.735369 5.96491 0.835349 4.95132 1.21701 4.03022C1.59867 3.10911 2.24488 2.32185 3.07392 1.76797C3.90297 1.21409 4.87763 0.918457 5.87468 0.918457C6.87172 0.918457 7.84638 1.21409 8.67543 1.76797C9.50448 2.32185 10.1507 3.10911 10.5323 4.03022C10.914 4.95132 11.014 5.96491 10.8196 6.94283C10.6253 7.92076 10.1454 8.8191 9.44051 9.52428ZM5.87468 7.79178C6.36091 7.79178 6.82722 7.59863 7.17104 7.25481C7.51485 6.911 7.70801 6.44468 7.70801 5.95845C7.70801 5.47222 7.51485 5.0059 7.17104 4.66209C6.82722 4.31827 6.36091 4.12512 5.87468 4.12512C5.38845 4.12512 4.92213 4.31827 4.57831 4.66209C4.2345 5.0059 4.04134 5.47222 4.04134 5.95845C4.04134 6.44468 4.2345 6.911 4.57831 7.25481C4.92213 7.59863 5.38845 7.79178 5.87468 7.79178ZM17.6905 17.7743L14.1247 21.3383L10.5588 17.7734C9.85399 17.0682 9.37405 16.1698 9.17971 15.1919C8.98537 14.214 9.08535 13.2004 9.46701 12.2793C9.84867 11.3582 10.4949 10.5709 11.3239 10.0171C12.153 9.46317 13.1276 9.16754 14.1247 9.16754C15.1217 9.16754 16.0964 9.46317 16.9254 10.0171C17.7545 10.5709 18.4007 11.3582 18.7823 12.2793C19.164 13.2004 19.264 14.214 19.0696 15.1919C18.8753 16.1698 18.3954 17.0691 17.6905 17.7743ZM14.1247 16.0418C14.6109 16.0418 15.0772 15.8486 15.421 15.5048C15.7649 15.161 15.958 14.6947 15.958 14.2085C15.958 13.7222 15.7649 13.2559 15.421 12.9121C15.0772 12.5683 14.6109 12.3751 14.1247 12.3751C13.6384 12.3751 13.1721 12.5683 12.8283 12.9121C12.4845 13.2559 12.2913 13.7222 12.2913 14.2085C12.2913 14.6947 12.4845 15.161 12.8283 15.5048C13.1721 15.8486 13.6384 16.0418 14.1247 16.0418Z" fill="#0090FA"/>
</svg>
