<svg width="27" height="27" viewBox="0 0 27 27" fill="none" xmlns="http://www.w3.org/2000/svg">
<circle cx="13.5" cy="13.5" r="13.5" fill="#191919"/>
<g clip-path="url(#clip0_134_1988)">
<path d="M19.125 16.2625V18.4725C19.1251 18.6307 19.0651 18.7831 18.9572 18.8989C18.8494 19.0146 18.7016 19.0852 18.5438 19.0963C18.2706 19.115 18.0475 19.125 17.875 19.125C12.3519 19.125 7.875 14.6481 7.875 9.125C7.875 8.9525 7.88438 8.72938 7.90375 8.45625C7.91483 8.2984 7.98536 8.15063 8.10113 8.04276C8.21689 7.93488 8.36926 7.87493 8.5275 7.875H10.7375C10.815 7.87492 10.8898 7.90366 10.9473 7.95564C11.0049 8.00761 11.041 8.07911 11.0488 8.15625C11.0631 8.3 11.0763 8.41438 11.0888 8.50125C11.213 9.36808 11.4675 10.2111 11.8438 11.0019C11.9031 11.1269 11.8644 11.2763 11.7519 11.3563L10.4031 12.32C11.2278 14.2415 12.7591 15.7728 14.6806 16.5975L15.6431 15.2513C15.6825 15.1962 15.7399 15.1568 15.8053 15.1398C15.8708 15.1228 15.9401 15.1293 16.0013 15.1581C16.7919 15.5337 17.6347 15.7876 18.5013 15.9113C18.5881 15.9237 18.7025 15.9375 18.845 15.9513C18.922 15.9591 18.9934 15.9954 19.0452 16.0529C19.0971 16.1104 19.1251 16.1851 19.125 16.2625Z" fill="white"/>
</g>
<defs>
<clipPath id="clip0_134_1988">
<rect width="15" height="15" fill="white" transform="translate(6 6)"/>
</clipPath>
</defs>
</svg>
