<svg width="21" height="17" viewBox="0 0 21 17" fill="none" xmlns="http://www.w3.org/2000/svg">
<path d="M18.375 14.625H20.125V16.375H0.875V14.625H2.625V1.5C2.625 1.26794 2.71719 1.04538 2.88128 0.881282C3.04538 0.717187 3.26794 0.625 3.5 0.625H12.25C12.4821 0.625 12.7046 0.717187 12.8687 0.881282C13.0328 1.04538 13.125 1.26794 13.125 1.5V14.625H14.875V5.875H17.5C17.7321 5.875 17.9546 5.96719 18.1187 6.13128C18.2828 6.29538 18.375 6.51794 18.375 6.75V14.625ZM6.125 7.625V9.375H9.625V7.625H6.125ZM6.125 4.125V5.875H9.625V4.125H6.125Z" fill="#0090FA"/>
</svg>
