<svg width="27" height="27" viewBox="0 0 27 27" fill="none" xmlns="http://www.w3.org/2000/svg">
<circle cx="13.5" cy="13.5" r="13.5" fill="#191919"/>
<g clip-path="url(#clip0_134_1993)">
<path d="M8.6237 8.625H18.3737C18.5174 8.625 18.6551 8.68207 18.7567 8.78365C18.8583 8.88523 18.9154 9.02301 18.9154 9.16667V17.8333C18.9154 17.977 18.8583 18.1148 18.7567 18.2164C18.6551 18.3179 18.5174 18.375 18.3737 18.375H8.6237C8.48004 18.375 8.34226 18.3179 8.24068 18.2164C8.1391 18.1148 8.08203 17.977 8.08203 17.8333V9.16667C8.08203 9.02301 8.1391 8.88523 8.24068 8.78365C8.34226 8.68207 8.48004 8.625 8.6237 8.625ZM13.5312 13.3283L10.058 10.3789L9.35657 11.2044L13.5382 14.755L17.6446 11.2017L16.9361 10.3822L13.5312 13.3283Z" fill="white"/>
</g>
<defs>
<clipPath id="clip0_134_1993">
<rect width="13" height="13" fill="white" transform="translate(7 7)"/>
</clipPath>
</defs>
</svg>
