<svg width="27" height="27" viewBox="0 0 27 27" fill="none" xmlns="http://www.w3.org/2000/svg">
<circle cx="13.5" cy="13.5" r="13.5" fill="#191919"/>
<path d="M13.5 7.25C15.1981 7.25 15.41 7.25625 16.0763 7.2875C16.7419 7.31875 17.195 7.42313 17.5938 7.57813C18.0062 7.73688 18.3538 7.95187 18.7013 8.29875C19.0191 8.61118 19.265 8.98912 19.4219 9.40625C19.5763 9.80437 19.6813 10.2581 19.7125 10.9237C19.7419 11.59 19.75 11.8019 19.75 13.5C19.75 15.1981 19.7438 15.41 19.7125 16.0763C19.6813 16.7419 19.5763 17.195 19.4219 17.5938C19.2654 18.0111 19.0195 18.3891 18.7013 18.7013C18.3887 19.0189 18.0108 19.2648 17.5938 19.4219C17.1956 19.5763 16.7419 19.6813 16.0763 19.7125C15.41 19.7419 15.1981 19.75 13.5 19.75C11.8019 19.75 11.59 19.7438 10.9237 19.7125C10.2581 19.6813 9.805 19.5763 9.40625 19.4219C8.98895 19.2653 8.61095 19.0193 8.29875 18.7013C7.98088 18.3889 7.73496 18.0109 7.57813 17.5938C7.42313 17.1956 7.31875 16.7419 7.2875 16.0763C7.25812 15.41 7.25 15.1981 7.25 13.5C7.25 11.8019 7.25625 11.59 7.2875 10.9237C7.31875 10.2575 7.42313 9.805 7.57813 9.40625C7.73452 8.98886 7.9805 8.61083 8.29875 8.29875C8.61104 7.98077 8.98902 7.73483 9.40625 7.57813C9.805 7.42313 10.2575 7.31875 10.9237 7.2875C11.59 7.25812 11.8019 7.25 13.5 7.25ZM13.5 10.375C12.6712 10.375 11.8763 10.7042 11.2903 11.2903C10.7042 11.8763 10.375 12.6712 10.375 13.5C10.375 14.3288 10.7042 15.1237 11.2903 15.7097C11.8763 16.2958 12.6712 16.625 13.5 16.625C14.3288 16.625 15.1237 16.2958 15.7097 15.7097C16.2958 15.1237 16.625 14.3288 16.625 13.5C16.625 12.6712 16.2958 11.8763 15.7097 11.2903C15.1237 10.7042 14.3288 10.375 13.5 10.375ZM17.5625 10.2188C17.5625 10.0115 17.4802 9.81284 17.3337 9.66632C17.1872 9.51981 16.9885 9.4375 16.7812 9.4375C16.574 9.4375 16.3753 9.51981 16.2288 9.66632C16.0823 9.81284 16 10.0115 16 10.2188C16 10.426 16.0823 10.6247 16.2288 10.7712C16.3753 10.9177 16.574 11 16.7812 11C16.9885 11 17.1872 10.9177 17.3337 10.7712C17.4802 10.6247 17.5625 10.426 17.5625 10.2188ZM13.5 11.625C13.9973 11.625 14.4742 11.8225 14.8258 12.1742C15.1775 12.5258 15.375 13.0027 15.375 13.5C15.375 13.9973 15.1775 14.4742 14.8258 14.8258C14.4742 15.1775 13.9973 15.375 13.5 15.375C13.0027 15.375 12.5258 15.1775 12.1742 14.8258C11.8225 14.4742 11.625 13.9973 11.625 13.5C11.625 13.0027 11.8225 12.5258 12.1742 12.1742C12.5258 11.8225 13.0027 11.625 13.5 11.625Z" fill="white"/>
</svg>
