<svg width="27" height="27" viewBox="0 0 27 27" fill="none" xmlns="http://www.w3.org/2000/svg">
<circle cx="13.5" cy="13.5" r="13.5" fill="#191919"/>
<path fill-rule="evenodd" clip-rule="evenodd" d="M12.1061 11.8581H14.1178V12.8602C14.4076 12.2839 15.1508 11.766 16.2672 11.766C18.4073 11.766 18.9154 12.9133 18.9154 15.0182V18.9166H16.7487V15.4976C16.7487 14.2989 16.4589 13.6229 15.7212 13.6229C14.6979 13.6229 14.2727 14.3514 14.2727 15.497V18.9166H12.1061V11.8581ZM8.39078 18.8245H10.5574V11.766H8.39078V18.8245ZM10.8678 9.4645C10.8679 9.64611 10.8319 9.82592 10.7619 9.99349C10.6918 10.1611 10.5892 10.313 10.4599 10.4406C10.198 10.7009 9.84343 10.8466 9.47411 10.8458C9.10545 10.8455 8.7517 10.7002 8.48936 10.4411C8.36056 10.3131 8.25828 10.161 8.18838 9.9934C8.11849 9.82582 8.08234 9.64608 8.08203 9.4645C8.08203 9.09779 8.22828 8.74679 8.48991 8.48788C8.75201 8.2285 9.10591 8.08309 9.47466 8.08325C9.84407 8.08325 10.1983 8.22896 10.4599 8.48788C10.721 8.74679 10.8678 9.09779 10.8678 9.4645Z" fill="white"/>
</svg>
