<svg width="13" height="16" viewBox="0 0 13 16" fill="none" xmlns="http://www.w3.org/2000/svg">
<path d="M11.0078 11.2995L6.5 15.8074L1.99217 11.2995C1.10062 10.408 0.493465 9.27205 0.247491 8.03542C0.00151653 6.79879 0.127767 5.517 0.610278 4.35212C1.09279 3.18725 1.90989 2.19161 2.95825 1.49112C4.00661 0.790633 5.23915 0.416748 6.5 0.416748C7.76086 0.416748 8.99339 0.790633 10.0418 1.49112C11.0901 2.19161 11.9072 3.18725 12.3897 4.35212C12.8722 5.517 12.9985 6.79879 12.7525 8.03542C12.5065 9.27205 11.8994 10.408 11.0078 11.2995ZM6.5 8.20836C6.87573 8.20836 7.23606 8.0591 7.50174 7.79343C7.76741 7.52775 7.91667 7.16742 7.91667 6.79169C7.91667 6.41597 7.76741 6.05563 7.50174 5.78996C7.23606 5.52428 6.87573 5.37503 6.5 5.37503C6.12428 5.37503 5.76395 5.52428 5.49827 5.78996C5.23259 6.05563 5.08334 6.41597 5.08334 6.79169C5.08334 7.16742 5.23259 7.52775 5.49827 7.79343C5.76395 8.0591 6.12428 8.20836 6.5 8.20836Z" fill="#0090FA"/>
</svg>
