<svg width="18" height="16" viewBox="0 0 18 16" fill="none" xmlns="http://www.w3.org/2000/svg">
<path d="M1.49947 0.5H16.4995C16.7205 0.5 16.9324 0.587797 17.0887 0.744078C17.245 0.900358 17.3328 1.11232 17.3328 1.33333V14.6667C17.3328 14.8877 17.245 15.0996 17.0887 15.2559C16.9324 15.4122 16.7205 15.5 16.4995 15.5H1.49947C1.27846 15.5 1.0665 15.4122 0.910215 15.2559C0.753935 15.0996 0.666138 14.8877 0.666138 14.6667V1.33333C0.666138 1.11232 0.753935 0.900358 0.910215 0.744078C1.0665 0.587797 1.27846 0.5 1.49947 0.5ZM9.04947 7.73583L3.70614 3.19833L2.62697 4.46833L9.0603 9.93083L15.3778 4.46417L14.2878 3.20333L9.04947 7.73583Z" fill="#0090FA"/>
</svg>
