<svg width="57" height="66" viewBox="0 0 57 66" fill="none" xmlns="http://www.w3.org/2000/svg">
<path d="M24.5013 39.5834V45.6667C19.6611 45.6667 15.0191 47.5895 11.5966 51.012C8.17406 54.4346 6.2513 59.0765 6.2513 63.9167H0.167969C0.167969 57.4631 2.73165 51.2739 7.29504 46.7105C11.8584 42.1471 18.0477 39.5834 24.5013 39.5834ZM24.5013 36.5417C14.4182 36.5417 6.2513 28.3749 6.2513 18.2917C6.2513 8.20862 14.4182 0.041748 24.5013 0.041748C34.5844 0.041748 42.7513 8.20862 42.7513 18.2917C42.7513 28.3749 34.5844 36.5417 24.5013 36.5417ZM24.5013 30.4584C31.2234 30.4584 36.668 25.0138 36.668 18.2917C36.668 11.5697 31.2234 6.12508 24.5013 6.12508C17.7792 6.12508 12.3346 11.5697 12.3346 18.2917C12.3346 25.0138 17.7792 30.4584 24.5013 30.4584ZM32.3944 54.2199C32.0088 52.597 32.0088 50.9062 32.3944 49.2833L29.3771 47.5404L32.4188 42.2722L35.4361 44.0151C36.6472 42.868 38.1111 42.022 39.7096 41.5453V38.0626H45.793V41.5453C47.4111 42.0259 48.8711 42.8836 50.0665 44.0151L53.0838 42.2722L56.1255 47.5404L53.1082 49.2833C53.4934 50.9053 53.4934 52.5949 53.1082 54.2169L56.1255 55.9598L53.0838 61.2279L50.0665 59.485C48.8554 60.6321 47.3915 61.4782 45.793 61.9549V65.4376H39.7096V61.9549C38.1111 61.4782 36.6472 60.6321 35.4361 59.485L32.4188 61.2279L29.3771 55.9598L32.3944 54.2199ZM42.7513 56.3126C43.9613 56.3126 45.1218 55.8319 45.9775 54.9763C46.8331 54.1206 47.3138 52.9601 47.3138 51.7501C47.3138 50.54 46.8331 49.3795 45.9775 48.5239C45.1218 47.6683 43.9613 47.1876 42.7513 47.1876C41.5412 47.1876 40.3808 47.6683 39.5251 48.5239C38.6695 49.3795 38.1888 50.54 38.1888 51.7501C38.1888 52.9601 38.6695 54.1206 39.5251 54.9763C40.3808 55.8319 41.5412 56.3126 42.7513 56.3126Z" fill="white"/>
</svg>
